# xmcd
#
# Track frame offsets: 
#        150
#        6113
#        15030
#        25380
#        35342
#        45853
#        53594
#        61598
#        70956
#        79809
#        90613
#        102416
#        112078
#        122829
#        132213
#
# Disc length: 1876 seconds
#
# Revision: 2
# Processed by: cddbd v1.5.2PL0 Copyright (c) Steve Scherf et al.
# Submitted via: ExactAudioCopyFreeDBPlugin 1.0
#
DISCID=b107520f
DTITLE=Johnny Cash - Collection The Complete Sun Recordings in 4 Volum
DTITLE=es Vol. 4
DYEAR=2003
DGENRE=Country
TTITLE0=You Tell Me
TTITLE1=Life Goes On
TTITLE2=You Win Again
TTITLE3=I Could Never Be Ashamed of You
TTITLE4=Cold, Cold, Heart
TTITLE5=Hey Good Lookin'
TTITLE6=I Can't Help It
TTITLE7=Blue Train
TTITLE8=Katy Too
TTITLE9=Fool's Hall of Fame
TTITLE10=Thanks a Lot
TTITLE11=Just About Time
TTITLE12=I Just Thought You'd Like to Know
TTITLE13=Down the Street to 301
TTITLE14=I Forgot to Remember to Forget
EXTD=the complete sun recordings in four volumes\nan excellent set of 
EXTD=discs
EXTT0=
EXTT1=
EXTT2=
EXTT3=
EXTT4=
EXTT5=
EXTT6=
EXTT7=
EXTT8=
EXTT9=
EXTT10=
EXTT11=
EXTT12=
EXTT13=
EXTT14=
PLAYORDER=
